# xmcd
#
# Track frame offsets:
#	150
#	20250
#	36000
#	51900
#	65400
#	81000
#	92625
#	109500
#	129375
#	145500
#	164925
#	176700
#	195750
#	207675
#	222300
#	238575
#	254025
#	266475
#	284625
#	303000
#
# Disc length: 4330
#
# Revision: 1
# Processed by: cddbd v1.5.2PL0 Copyright (c) Steve Scherf et al.
# Submitted via: kJams Pro (development) 1.0patch45.20
#
DISCID=2310e814
DTITLE=Garth Brooks - Rsz 609
DYEAR=1997
DGENRE=Country
TTITLE0=Garth Brooks - Friends In Low Places (Studio Version)
TTITLE1=Garth Brooks - Thunder Rolls
TTITLE2=Garth Brooks - The Dance
TTITLE3=Garth Brooks - Much Too Young (To Feel This Damn Old)
TTITLE4=Garth Brooks - Unanswered Prayers
TTITLE5=Garth Brooks - Two Of A Kind
TTITLE6=Garth Brooks - If Tommorrow Never Comes
TTITLE7=Garth Brooks - Shameless
TTITLE8=Garth Brooks - American Honky-Tonk Bar Association
TTITLE9=Garth Brooks - Ain't Going Down (Till The Sun Comes Up)
TTITLE10=Garth Brooks - Callin' Baton Rouge
TTITLE11=Garth Brooks - The River
TTITLE12=Garth Brooks - Not Counting You
TTITLE13=Garth Brooks - Somewhere Other Than The Night
TTITLE14=Garth Brooks - Rodeo
TTITLE15=Garth Brooks - What She's Doing Now
TTITLE16=Garth Brooks - Papa Loved Mama
TTITLE17=Garth Brooks - We Shall Be Free
TTITLE18=Garth Brooks - Learning To Live Again
TTITLE19=Garth Brooks - That Summer
EXTD=
EXTT0=
EXTT1=
EXTT2=
EXTT3=
EXTT4=
EXTT5=
EXTT6=
EXTT7=
EXTT8=
EXTT9=
EXTT10=
EXTT11=
EXTT12=
EXTT13=
EXTT14=
EXTT15=
EXTT16=
EXTT17=
EXTT18=
EXTT19=
PLAYORDER=
